<?xml version="1.0" encoding="UTF-8" standalone="no"?>
<svg
   xmlns:dc="http://purl.org/dc/elements/1.1/"
   xmlns:cc="http://creativecommons.org/ns#"
   xmlns:rdf="http://www.w3.org/1999/02/22-rdf-syntax-ns#"
   xmlns:svg="http://www.w3.org/2000/svg"
   xmlns="http://www.w3.org/2000/svg"
   xmlns:sodipodi="http://sodipodi.sourceforge.net/DTD/sodipodi-0.dtd"
   xmlns:inkscape="http://www.inkscape.org/namespaces/inkscape"
   inkscape:version="1.0 (4035a4f, 2020-05-01)"
   inkscape:export-ydpi="114.56095"
   inkscape:export-xdpi="114.56095"
   inkscape:export-filename="/Users/ian/Projects/OSS/abu/packages/cms/src/assets/svg/heart.png"
   sodipodi:docname="heart.svg"
   id="svg12"
   version="1.1"
   viewBox="0 0 512 512">
  <metadata
     id="metadata18">
    <rdf:RDF>
      <cc:Work
         rdf:about="">
        <dc:format>image/svg+xml</dc:format>
        <dc:type
           rdf:resource="http://purl.org/dc/dcmitype/StillImage" />
      </cc:Work>
    </rdf:RDF>
  </metadata>
  <defs
     id="defs16" />
  <sodipodi:namedview
     inkscape:current-layer="svg12"
     inkscape:window-maximized="1"
     inkscape:window-y="274"
     inkscape:window-x="0"
     inkscape:cy="256"
     inkscape:cx="122.05097"
     inkscape:zoom="1.3027344"
     showgrid="false"
     id="namedview14"
     inkscape:window-height="1027"
     inkscape:window-width="1920"
     inkscape:pageshadow="2"
     inkscape:pageopacity="0"
     guidetolerance="10"
     gridtolerance="10"
     objecttolerance="10"
     borderopacity="1"
     bordercolor="#666666"
     pagecolor="#ffffff" />
  <path
     id="path20"
     d="M 162.65343,330.27938 C 82.032544,249.55293 67.91771,235.0937 64.204049,229.42779 56.778238,218.0983 51.690495,205.42914 49.482997,192.7704 c -1.464737,-8.39941 -1.433372,-24.2178 0.06506,-32.81042 2.430555,-13.93783 8.828032,-28.81181 17.316272,-40.2599 4.943719,-6.66759 18.929111,-20.934961 25.286804,-25.796645 32.819407,-25.096771 76.819157,-26.5492 111.426937,-3.678196 6.76258,4.469136 11.12588,8.490516 30.30107,27.926641 l 22.40089,22.70569 23.27228,-23.10976 C 303.449,94.017996 308.25778,90.015309 319.9336,84.135643 c 13.53661,-6.816713 26.87515,-9.906616 42.76505,-9.906616 20.22696,0 36.11501,4.832255 53.34933,16.225883 8.03534,5.312175 23.06823,19.77201 29.6561,28.5256 24.58352,32.66524 25.72697,76.10831 2.91524,110.75886 -4.76378,7.23608 -12.32666,15.01407 -98.50582,101.30762 l -93.34588,93.46978 z"
     style="fill:#000000;stroke-width:14.3553;stroke-miterlimit:0" />
</svg>
