<?xml version="1.0" standalone="no"?>
<!DOCTYPE svg PUBLIC "-//W3C//DTD SVG 20010904//EN"
 "http://www.w3.org/TR/2001/REC-SVG-20010904/DTD/svg10.dtd">
<svg version="1.0" xmlns="http://www.w3.org/2000/svg"
 width="700.000000pt" height="700.000000pt" viewBox="0 0 700.000000 700.000000"
 preserveAspectRatio="xMidYMid meet">
<metadata>
Created by potrace 1.11, written by Peter Selinger 2001-2013
</metadata>
<g transform="translate(0.000000,700.000000) scale(0.100000,-0.100000)"
fill="#000000" stroke="none">
<path d="M1900 5979 c-25 -4 -65 -10 -90 -14 -139 -21 -368 -119 -503 -216
-73 -52 -226 -194 -320 -298 -152 -166 -275 -426 -311 -655 -13 -84 -15 -371
-3 -421 3 -11 10 -42 17 -70 32 -143 137 -383 200 -460 94 -112 307 -330 1558
-1584 l1063 -1066 1117 1121 c1525 1529 1483 1485 1575 1664 56 109 81 172
112 290 49 185 53 415 10 610 -16 75 -70 221 -99 270 -11 19 -19 36 -18 38 5
5 -69 124 -117 187 -53 71 -242 263 -324 328 -152 123 -334 211 -519 253 -10
2 -28 6 -40 9 -83 18 -283 25 -398 12 -169 -18 -376 -86 -515 -171 -118 -71
-191 -136 -570 -512 -105 -104 -198 -195 -207 -202 -15 -12 -50 20 -300 271
-156 156 -312 308 -348 338 -152 127 -404 241 -585 265 -27 3 -54 9 -59 11
-13 9 -276 10 -326 2z"/>
</g>
</svg>
